<svg width="12" height="10" viewBox="0 0 12 10" fill="none" xmlns="http://www.w3.org/2000/svg">
<path d="M2.37583 4.01342L1.69319 4.83334H2.76008H10.6667C10.711 4.83334 10.7533 4.8509 10.7846 4.88215L11.1382 4.5286L10.7846 4.88216C10.8159 4.91341 10.8334 4.9558 10.8334 5.00001C10.8334 5.04421 10.8159 5.0866 10.7846 5.11786C10.7533 5.14911 10.711 5.16667 10.6667 5.16667H2.76008H1.69319L2.37583 5.98659L4.79583 8.89326L4.79596 8.89342C4.80999 8.91026 4.82057 8.9297 4.82707 8.95064L5.30454 8.80222L4.82708 8.95064C4.83358 8.97157 4.8359 8.99359 4.83388 9.01541C4.83187 9.03724 4.82557 9.05846 4.81535 9.07786C4.80512 9.09725 4.79117 9.11443 4.77429 9.12842C4.74433 9.15321 4.70662 9.16675 4.66772 9.16667L4.66593 9.16667C4.64145 9.16671 4.61726 9.16136 4.59508 9.15099C4.5729 9.14062 4.55327 9.12549 4.5376 9.10667L4.53752 9.10658L1.22028 5.12589C1.21533 5.11803 1.21076 5.10993 1.20658 5.10163L1.17046 5.02997C1.1684 5.02042 1.16719 5.01068 1.16684 5.00089C1.18335 4.97579 1.19883 4.94792 1.21233 4.91708C1.2214 4.89633 1.22873 4.87617 1.23464 4.85689L4.53753 0.893432L4.53793 0.89294C4.56633 0.858776 4.60713 0.837292 4.65137 0.833214C4.69561 0.829135 4.73965 0.842796 4.77381 0.871192C4.80798 0.899587 4.82946 0.940392 4.83354 0.984627L5.33143 0.938723L4.83354 0.984629C4.83762 1.02886 4.82396 1.07291 4.79556 1.10707L2.37583 4.01342ZM1.21341 5.23298C1.21435 5.24866 1.21341 5.25306 1.21341 5.24001V5.23298ZM4.66675 9.66661V9.66664V9.66661Z" fill="#94A3B8" stroke="#26355B"/>
</svg>
