<svg width="150" height="38" viewBox="0 0 150 38" fill="none" xmlns="http://www.w3.org/2000/svg">
<path d="M95.2551 23.5315C95.3781 22.9513 95.4461 22.3606 95.458 21.7676C95.458 16.9607 91.5243 12.5066 85.0769 12.5066C83.1355 12.4594 81.2123 12.8909 79.4772 13.7631C77.7421 14.6353 76.2484 15.9213 75.1281 17.5075L76.7333 13.2299H69.7479L66.4757 22.0498C65.9434 23.5246 65.4987 25.0295 65.1439 26.5568H65.0381C64.7019 25.0303 64.2748 23.5253 63.7592 22.0498L60.487 13.2299H53.7045V0H46.2869V22.235C45.1315 16.308 40.0072 12.4802 33.9391 12.4802C27.5005 12.4802 22.235 16.6785 21.4236 23.0641C20.1182 19.4479 16.8019 17.1988 11.9686 15.8759C9.46377 15.1614 8.07905 14.2883 8.07905 12.6478C8.07905 11.0073 9.35793 9.83421 12.1186 9.83421C14.2794 9.91605 16.3923 10.4956 18.2925 11.5276L19.739 5.11555C17.1982 3.86192 14.3958 3.23011 11.5629 3.27219C4.49816 3.27219 0.458636 7.62041 0.458636 13.0447C0.458636 18.0015 3.43095 21.5294 9.81657 23.2758C12.8418 24.0872 14.0149 25.1632 14.0149 27.0595C14.0149 28.9558 12.2509 30.3317 9.41085 30.3317C6.03587 30.2348 2.76361 29.1491 0 27.2095L0.767333 34.627C3.58309 36.1301 6.73071 36.9033 9.92241 36.8761C16.9783 36.8761 21.009 33.6921 21.794 28.5324C23.3375 33.8244 28.1532 37.1319 33.895 37.1319C40.0072 37.1319 45.1315 33.304 46.2428 27.377V29.141C46.2428 34.7152 49.418 37.1671 54.1808 37.37L56.8267 31.2843C54.7805 31.1343 53.7045 30.1112 53.7045 28.2149V14.4999L62.1275 36.6203H67.7546L73.1083 22.6319C73.0086 23.3154 72.9585 24.0051 72.9584 24.6958C72.9584 32.2633 78.6384 37.176 85.6943 37.176C88.2348 37.2398 90.7555 36.7146 93.059 35.6413L93.7822 29.1939C91.8539 30.3596 89.641 30.9701 87.3878 30.9579C83.4453 30.9579 80.8875 28.8147 80.5347 26.9184H91.8859L95.2551 23.5315ZM33.895 30.7903C31.0902 30.7903 28.6824 28.3384 28.6824 24.9075C28.6824 21.4765 31.0902 19.0246 33.895 19.0246C36.6997 19.0246 39.1163 21.4853 39.1163 24.9075C39.1163 28.3296 36.6644 30.7903 33.895 30.7903ZM88.358 21.891H80.5347C80.7488 20.8459 81.3094 19.9037 82.1258 19.217C82.9422 18.5302 83.9665 18.1392 85.0329 18.1073C85.9101 18.1091 86.7523 18.4511 87.3824 19.0615C88.0125 19.6718 88.3812 20.5028 88.4109 21.3795C88.4109 21.5823 88.358 21.7411 88.358 21.891Z" fill="#26355B"/>
<path d="M95.2553 36.9731C95.0325 36.9037 94.8296 36.7817 94.6638 36.6175C94.4981 36.4533 94.3742 36.2515 94.3027 36.0294C94.3761 35.8092 94.5007 35.6096 94.6663 35.4471C94.8319 35.2845 95.0338 35.1637 95.2553 35.0945C95.4775 35.1624 95.68 35.2828 95.8458 35.4455C96.0116 35.6082 96.1358 35.8085 96.2078 36.0294C96.1377 36.2523 96.0143 36.4547 95.8483 36.6191C95.6823 36.7836 95.4788 36.9051 95.2553 36.9731Z" fill="#26355B"/>
<path d="M107.868 36.8057L107.462 32.3163C107.4 31.646 107.339 30.7905 107.312 30.0584C107.004 30.7552 106.518 31.7254 106.192 32.3604L103.881 36.8851H103.326L100.98 32.3604C100.644 31.7078 100.221 30.817 99.877 30.0849C99.877 30.8522 99.7712 31.7254 99.7271 32.3163L99.339 36.8057H97.9014L98.7834 26.8568H99.7183L102.364 31.9724C102.761 32.7397 103.246 33.7363 103.617 34.5301C103.934 33.7628 104.41 32.7662 104.834 31.9724L107.48 26.8568H108.415L109.297 36.8057H107.868Z" fill="#26355B"/>
<path d="M115.964 36.9907C114.948 36.9665 113.962 36.643 113.128 36.0609C112.295 35.4789 111.652 34.6639 111.279 33.7181C110.907 32.7724 110.821 31.7377 111.034 30.7436C111.246 29.7495 111.747 28.8402 112.473 28.1293C113.2 27.4184 114.12 26.9376 115.119 26.747C116.117 26.5563 117.15 26.6644 118.087 27.0576C119.025 27.4508 119.825 28.1117 120.389 28.9576C120.953 29.8036 121.254 30.7969 121.256 31.8135C121.26 32.5041 121.125 33.1885 120.859 33.8259C120.593 34.4633 120.201 35.0407 119.708 35.5237C119.214 36.0067 118.628 36.3855 117.985 36.6375C117.342 36.8896 116.655 37.0097 115.964 36.9907ZM115.964 27.9944C115.195 27.9698 114.436 28.1755 113.785 28.5852C113.133 28.9948 112.619 29.5898 112.308 30.2937C111.996 30.9975 111.903 31.7783 112.038 32.5359C112.174 33.2935 112.532 33.9933 113.068 34.5457C113.604 35.098 114.293 35.4777 115.046 35.6361C115.799 35.7944 116.583 35.7242 117.295 35.4344C118.008 35.1446 118.619 34.6485 119.048 34.0097C119.477 33.3708 119.705 32.6183 119.704 31.8487C119.721 31.3478 119.636 30.8486 119.456 30.381C119.275 29.9134 119.002 29.487 118.653 29.1273C118.304 28.7675 117.886 28.4818 117.424 28.2872C116.962 28.0925 116.466 27.993 115.964 27.9944Z" fill="#26355B"/>
<path d="M131.505 37.0438L126.839 31.9459C126.09 31.1345 125.234 30.1378 124.546 29.2999C124.546 30.1819 124.546 31.0639 124.546 31.796V36.788H123.038V26.8568H124.079L128.348 31.5314C128.93 32.1752 129.829 33.1719 130.438 33.9216C130.438 33.1631 130.438 32.2987 130.438 31.5843V26.8568H131.955V37.0438H131.505Z" fill="#26355B"/>
<path d="M134.257 36.8057V26.8568H139.619V28.1533H135.774V31.1609H139.002V32.4575H135.774V35.5092H140.184V36.8057H134.257Z" fill="#26355B"/>
<path d="M146.04 32.2193V36.8057H144.559V32.2193L140.757 26.8568H142.407L144.4 29.6615C144.7 30.0849 145.061 30.6317 145.344 31.0639C145.626 30.6317 146.014 30.0584 146.296 29.6615L148.29 26.8568H149.833L146.04 32.2193Z" fill="#26355B"/>
</svg>
