<svg width="24" height="25" viewBox="0 0 24 25" fill="none" xmlns="http://www.w3.org/2000/svg">
<path fill-rule="evenodd" clip-rule="evenodd" d="M8.00194 4.92295C10.6983 4.71973 13.4065 4.73306 16.1007 4.96282L17.7245 5.1013C18.951 5.20589 19.9464 6.13671 20.1329 7.35346L20.2353 8.02178C20.5829 10.2897 20.5505 12.5997 20.1392 14.8569C19.9362 15.9706 18.9661 16.78 17.834 16.78H8.85756C8.65104 16.78 8.44774 16.8312 8.26583 16.929L4.35504 19.0307C4.12261 19.1556 3.84163 19.1492 3.61515 19.0138C3.38867 18.8784 3.25 18.6339 3.25 18.37V9.85274C3.25 7.27414 5.23741 5.13131 7.80871 4.93751L8.00194 4.92295ZM8 9.87004C7.30964 9.87004 6.75 10.4297 6.75 11.12C6.75 11.8104 7.30964 12.37 8 12.37C8.69036 12.37 9.25 11.8104 9.25 11.12C9.25 10.4297 8.69036 9.87004 8 9.87004ZM12 9.87004C11.3096 9.87004 10.75 10.4297 10.75 11.12C10.75 11.8104 11.3096 12.37 12 12.37C12.6904 12.37 13.25 11.8104 13.25 11.12C13.25 10.4297 12.6904 9.87004 12 9.87004ZM14.75 11.12C14.75 10.4297 15.3096 9.87004 16 9.87004C16.6904 9.87004 17.25 10.4297 17.25 11.12C17.25 11.8104 16.6904 12.37 16 12.37C15.3096 12.37 14.75 11.8104 14.75 11.12Z" fill="#393939"/>
</svg>
