<svg width="17" height="18" viewBox="0 0 17 18" fill="none" xmlns="http://www.w3.org/2000/svg">
<path d="M1.00029 7.23053C2.91669 11.4044 6.32669 14.7229 10.5662 16.5219L11.2458 16.8247C12.8006 17.5175 14.6284 16.9912 15.5767 15.5777L16.4648 14.2539C16.7536 13.8236 16.6656 13.2439 16.2623 12.9185L13.2504 10.4887C12.8081 10.1318 12.1575 10.215 11.8191 10.6716L10.8874 11.9289C8.49658 10.7495 6.55553 8.80849 5.37619 6.41768L6.63344 5.48595C7.0901 5.14753 7.17323 4.49702 6.81634 4.05464L4.38647 1.04269C4.06112 0.639412 3.48162 0.551444 3.05125 0.840013L1.71841 1.73371C0.296069 2.68742 -0.227312 4.53027 0.48142 6.08922L0.999509 7.22883L1.00029 7.23053Z" fill="#393939"/>
</svg>
